<?xml version="1.0" encoding="UTF-8"?>
<svg width="34px" height="35px" viewBox="0 0 34 35" version="1.1" xmlns="http://www.w3.org/2000/svg" xmlns:xlink="http://www.w3.org/1999/xlink">
    <title>icn/WIP/snoozed</title>
    <g id="Symbols" stroke="none" stroke-width="1" fill="none" fill-rule="evenodd">
        <g id="Job-Card---Late" transform="translate(-300.000000, 21.000000)" fill="#FFFFFF">
            <g id="icn/WIP/snoozed" transform="translate(300.333333, -20.203704)">
                <path d="M16.6666667,0 C7.45833333,0 0,7.45833333 0,16.6666667 C0,25.875 7.45833333,33.3333333 16.6666667,33.3333333 C25.875,33.3333333 33.3333333,25.875 33.3333333,16.6666667 C33.3333333,7.45833333 25.875,0 16.6666667,0 Z M24.75,21.9166667 C24.5,22.3333333 24.0416667,22.5833333 23.5833333,22.5833333 C23.375,22.5833333 23.125,22.5416667 22.9166667,22.4166667 L16,18.5 C15.5833333,18.25 15.3333333,17.8333333 15.3333333,17.3333333 L15.3333333,7.875 C15.3333333,7.125 15.9166667,6.54166667 16.6666667,6.54166667 C17.4166667,6.54166667 18,7.125 18,7.875 L18,16.5833333 L24.25,20.125 C24.875,20.4583333 25.125,21.2916667 24.75,21.9166667 Z" id="Clock"></path>
            </g>
        </g>
    </g>
</svg>